<svg width="34" height="55" viewBox="0 0 34 55" fill="none" xmlns="http://www.w3.org/2000/svg">
<path d="M0.573621 47.4908V52.6717C0.575609 53.179 0.778337 53.6648 1.13742 54.0228C1.4965 54.3807 1.98268 54.5817 2.48951 54.5817H7.66615C8.17298 54.5817 8.65915 54.3807 9.01823 54.0228C9.37731 53.6648 9.58004 53.179 9.58203 52.6717V47.4908C9.58203 46.9822 9.38018 46.4945 9.02089 46.1349C8.66159 45.7753 8.17427 45.5733 7.66615 45.5733H2.48951C1.98138 45.5733 1.49407 45.7753 1.13477 46.1349C0.775474 46.4945 0.573621 46.9822 0.573621 47.4908Z" fill="#EC2B60"/>
<path d="M9.73231 47.4908V52.6717C9.7343 53.179 9.93703 53.6648 10.2961 54.0228C10.6552 54.3807 11.1414 54.5817 11.6482 54.5817H16.8248C17.3317 54.5817 17.8178 54.3807 18.1769 54.0228C18.536 53.6648 18.7387 53.179 18.7407 52.6717V47.4908C18.7407 46.9822 18.5389 46.4945 18.1796 46.1349C17.8203 45.7753 17.333 45.5733 16.8248 45.5733H11.6482C11.1401 45.5733 10.6528 45.7753 10.2935 46.1349C9.93417 46.4945 9.73231 46.9822 9.73231 47.4908Z" fill="#EC2B60"/>
<path d="M0.0113662 47.8373V47.4904C0.0143576 46.8309 0.277705 46.1991 0.744106 45.7327C1.21051 45.2663 1.84223 45.003 2.50181 45H25.689C26.3463 45.0103 26.9738 45.2759 27.4387 45.7408C27.9035 46.2056 28.1692 46.8331 28.1795 47.4904V52.4599C28.1795 52.7867 28.115 53.1103 27.9898 53.4121C27.8646 53.714 27.681 53.9881 27.4497 54.2189C27.2184 54.4497 26.9438 54.6327 26.6417 54.7572C26.3395 54.8817 26.0158 54.9454 25.689 54.9447H2.49043C2.16365 54.9454 1.83994 54.8817 1.53782 54.7572C1.2357 54.6327 0.961106 54.4497 0.729773 54.2189C0.49844 53.9881 0.314906 53.714 0.18968 53.4121C0.0644542 53.1103 -3.48519e-06 52.7867 -2.6296e-06 52.4599V52.1131M19.5653 51.9368C19.5668 52.3204 19.7202 52.6877 19.992 52.9584C20.2637 53.2291 20.6316 53.3811 21.0152 53.3811H24.9328C25.3164 53.3811 25.6843 53.2291 25.956 52.9584C26.2278 52.6877 26.3812 52.3204 26.3827 51.9368V48.0135C26.3812 47.63 26.2278 47.2627 25.956 46.992C25.6843 46.7213 25.3164 46.5693 24.9328 46.5693H21.0152C20.6316 46.5693 20.2637 46.7213 19.992 46.992C19.7202 47.2627 19.5668 47.63 19.5653 48.0135V51.9368ZM10.7976 51.9368C10.7991 52.3204 10.9525 52.6877 11.2243 52.9584C11.496 53.2291 11.8639 53.3811 12.2475 53.3811H16.1651C16.5481 53.3811 16.9155 53.2289 17.1863 52.9581C17.4572 52.6872 17.6093 52.3199 17.6093 51.9368V48.0135C17.6093 47.6305 17.4572 47.2632 17.1863 46.9923C16.9155 46.7215 16.5481 46.5693 16.1651 46.5693H12.2475C11.8639 46.5693 11.496 46.7213 11.2243 46.992C10.9525 47.2627 10.7991 47.63 10.7976 48.0135V51.9368ZM1.70009 51.9368C1.70009 52.3199 1.85225 52.6872 2.12309 52.9581C2.39394 53.2289 2.76128 53.3811 3.14432 53.3811H7.06761C7.44768 53.3766 7.81066 53.2224 8.07782 52.9521C8.34499 52.6817 8.49481 52.3169 8.49478 51.9368V48.0135C8.49478 47.8239 8.45742 47.6361 8.38484 47.4609C8.31226 47.2856 8.20588 47.1264 8.07177 46.9923C7.93767 46.8582 7.77846 46.7518 7.60323 46.6793C7.42801 46.6067 7.24021 46.5693 7.05055 46.5693H3.12726C2.74423 46.5693 2.37688 46.7215 2.10604 46.9923C1.83519 47.2632 1.68303 47.6305 1.68303 48.0135L1.70009 51.9368Z" fill="white"/>
<mask id="path-4-outside-1_848_154" maskUnits="userSpaceOnUse" x="0" y="0" width="34" height="42" fill="black">
<rect fill="white" width="34" height="42"/>
<path d="M9.832 19.944C7.624 18.664 6.52 16.728 6.52 14.136C6.52 13.592 6.568 13.016 6.664 12.408C6.952 10.744 7.672 9.176 8.824 7.704C10.008 6.232 11.592 5.048 13.576 4.152C15.56 3.256 17.864 2.808 20.488 2.808C22.824 2.808 24.776 3.176 26.344 3.912C27.944 4.616 29.128 5.576 29.896 6.792C30.664 8.008 31.048 9.352 31.048 10.824C31.048 11.336 31 11.864 30.904 12.408C30.616 14.136 29.944 15.64 28.888 16.92C27.864 18.2 26.6 19.208 25.096 19.944C26.376 20.616 27.352 21.528 28.024 22.68C28.728 23.8 29.08 25.112 29.08 26.616C29.08 27.32 29.016 27.992 28.888 28.632C28.472 30.936 27.544 32.92 26.104 34.584C24.696 36.248 22.92 37.512 20.776 38.376C18.664 39.24 16.392 39.672 13.96 39.672C10.664 39.672 7.976 38.888 5.896 37.32C3.848 35.752 2.824 33.576 2.824 30.792C2.824 30.024 2.888 29.304 3.016 28.632C3.368 26.616 4.136 24.872 5.32 23.4C6.504 21.928 8.008 20.776 9.832 19.944ZM19.288 9.528C18.072 9.528 17.016 9.896 16.12 10.632C15.256 11.368 14.712 12.392 14.488 13.704C14.424 14.152 14.392 14.456 14.392 14.616C14.392 15.608 14.696 16.392 15.304 16.968C15.944 17.512 16.792 17.784 17.848 17.784C19.224 17.784 20.392 17.32 21.352 16.392C22.312 15.464 22.792 14.232 22.792 12.696C22.792 11.672 22.472 10.888 21.832 10.344C21.224 9.8 20.376 9.528 19.288 9.528ZM16.84 23.496C15.336 23.496 14.04 23.912 12.952 24.744C11.896 25.576 11.24 26.728 10.984 28.2C10.92 28.648 10.888 28.984 10.888 29.208C10.888 30.328 11.256 31.24 11.992 31.944C12.728 32.616 13.784 32.952 15.16 32.952C16.92 32.952 18.344 32.408 19.432 31.32C20.52 30.2 21.064 28.824 21.064 27.192C21.064 26.04 20.68 25.144 19.912 24.504C19.176 23.832 18.152 23.496 16.84 23.496Z"/>
</mask>
<path d="M9.832 19.944C7.624 18.664 6.52 16.728 6.52 14.136C6.52 13.592 6.568 13.016 6.664 12.408C6.952 10.744 7.672 9.176 8.824 7.704C10.008 6.232 11.592 5.048 13.576 4.152C15.56 3.256 17.864 2.808 20.488 2.808C22.824 2.808 24.776 3.176 26.344 3.912C27.944 4.616 29.128 5.576 29.896 6.792C30.664 8.008 31.048 9.352 31.048 10.824C31.048 11.336 31 11.864 30.904 12.408C30.616 14.136 29.944 15.64 28.888 16.92C27.864 18.2 26.6 19.208 25.096 19.944C26.376 20.616 27.352 21.528 28.024 22.68C28.728 23.8 29.08 25.112 29.08 26.616C29.08 27.32 29.016 27.992 28.888 28.632C28.472 30.936 27.544 32.92 26.104 34.584C24.696 36.248 22.92 37.512 20.776 38.376C18.664 39.24 16.392 39.672 13.96 39.672C10.664 39.672 7.976 38.888 5.896 37.32C3.848 35.752 2.824 33.576 2.824 30.792C2.824 30.024 2.888 29.304 3.016 28.632C3.368 26.616 4.136 24.872 5.32 23.4C6.504 21.928 8.008 20.776 9.832 19.944ZM19.288 9.528C18.072 9.528 17.016 9.896 16.12 10.632C15.256 11.368 14.712 12.392 14.488 13.704C14.424 14.152 14.392 14.456 14.392 14.616C14.392 15.608 14.696 16.392 15.304 16.968C15.944 17.512 16.792 17.784 17.848 17.784C19.224 17.784 20.392 17.32 21.352 16.392C22.312 15.464 22.792 14.232 22.792 12.696C22.792 11.672 22.472 10.888 21.832 10.344C21.224 9.8 20.376 9.528 19.288 9.528ZM16.84 23.496C15.336 23.496 14.04 23.912 12.952 24.744C11.896 25.576 11.24 26.728 10.984 28.2C10.92 28.648 10.888 28.984 10.888 29.208C10.888 30.328 11.256 31.24 11.992 31.944C12.728 32.616 13.784 32.952 15.16 32.952C16.92 32.952 18.344 32.408 19.432 31.32C20.52 30.2 21.064 28.824 21.064 27.192C21.064 26.04 20.68 25.144 19.912 24.504C19.176 23.832 18.152 23.496 16.84 23.496Z" fill="#EC2B60"/>
<path d="M9.832 19.944L10.662 21.7636L14.1859 20.1562L10.8351 18.2137L9.832 19.944ZM6.664 12.408L4.6933 12.0669L4.69078 12.0815L4.68847 12.0961L6.664 12.408ZM8.824 7.704L7.26557 6.45048L7.25721 6.46088L7.24899 6.47138L8.824 7.704ZM13.576 4.152L14.3992 5.97474L14.3992 5.97474L13.576 4.152ZM26.344 3.912L25.4942 5.72247L25.5162 5.73282L25.5385 5.74263L26.344 3.912ZM29.896 6.792L31.587 5.72401L31.587 5.72401L29.896 6.792ZM30.904 12.408L28.9344 12.0604L28.9328 12.0698L28.9312 12.0792L30.904 12.408ZM28.888 16.92L27.3453 15.6472L27.3357 15.6588L27.3263 15.6706L28.888 16.92ZM25.096 19.944L24.2169 18.1476L20.674 19.8813L24.1663 21.7148L25.096 19.944ZM28.024 22.68L26.2964 23.6877L26.3131 23.7163L26.3307 23.7443L28.024 22.68ZM28.888 28.632L26.9268 28.2398L26.9232 28.2582L26.9198 28.2766L28.888 28.632ZM26.104 34.584L24.5917 33.2752L24.5844 33.2836L24.5772 33.2921L26.104 34.584ZM20.776 38.376L20.0284 36.5209L20.0187 36.5249L20.776 38.376ZM5.896 37.32L4.68018 38.908L4.68611 38.9126L4.69207 38.917L5.896 37.32ZM3.016 28.632L4.98068 29.0062L4.98355 28.9911L4.98619 28.976L3.016 28.632ZM16.12 10.632L14.8505 9.08655L14.8367 9.09791L14.8231 9.10951L16.12 10.632ZM14.488 13.704L12.5165 13.3674L12.5119 13.3942L12.5081 13.4212L14.488 13.704ZM15.304 16.968L13.9285 18.4199L13.9676 18.457L14.0087 18.4919L15.304 16.968ZM21.832 10.344L20.4984 11.8345L20.5173 11.8514L20.5367 11.8679L21.832 10.344ZM12.952 24.744L11.7371 23.1553L11.7256 23.1641L11.7143 23.173L12.952 24.744ZM10.984 28.2L9.01358 27.8573L9.00839 27.8872L9.0041 27.9172L10.984 28.2ZM11.992 31.944L10.6096 33.3893L10.6263 33.4053L10.6435 33.421L11.992 31.944ZM19.432 31.32L20.8462 32.7342L20.8565 32.724L20.8666 32.7136L19.432 31.32ZM19.912 24.504L18.5635 25.981L18.5969 26.0115L18.6316 26.0404L19.912 24.504ZM10.8351 18.2137C9.25596 17.2983 8.52 16.0285 8.52 14.136H4.52C4.52 17.4275 5.99204 20.0297 8.82894 21.6743L10.8351 18.2137ZM8.52 14.136C8.52 13.709 8.55774 13.2379 8.63953 12.7199L4.68847 12.0961C4.57826 12.7941 4.52 13.475 4.52 14.136H8.52ZM8.6347 12.7491C8.86057 11.444 9.42831 10.177 10.399 8.93662L7.24899 6.47138C5.91569 8.17504 5.04343 10.044 4.6933 12.0669L8.6347 12.7491ZM10.3824 8.95752C11.3414 7.76525 12.6578 6.76117 14.3992 5.97474L12.7528 2.32926C10.5262 3.33483 8.67458 4.69875 7.26557 6.45048L10.3824 8.95752ZM14.3992 5.97474C16.077 5.21703 18.0906 4.808 20.488 4.808V0.808C17.6374 0.808 15.043 1.29496 12.7528 2.32926L14.3992 5.97474ZM20.488 4.808C22.6274 4.808 24.2679 5.14685 25.4942 5.72247L27.1938 2.10153C25.2841 1.20515 23.0206 0.808 20.488 0.808V4.808ZM25.5385 5.74263C26.8535 6.32121 27.6917 7.04728 28.205 7.85999L31.587 5.72401C30.5643 4.10471 29.0345 2.91079 27.1495 2.08137L25.5385 5.74263ZM28.205 7.85999C28.7662 8.74851 29.048 9.72067 29.048 10.824H33.048C33.048 8.98333 32.5618 7.26748 31.587 5.72401L28.205 7.85999ZM29.048 10.824C29.048 11.2107 29.0118 11.6222 28.9344 12.0604L32.8736 12.7556C32.9882 12.1057 33.048 11.4613 33.048 10.824H29.048ZM28.9312 12.0792C28.6977 13.4803 28.1648 14.6539 27.3453 15.6472L30.4307 18.1928C31.7232 16.6261 32.5343 14.7917 32.8768 12.7368L28.9312 12.0792ZM27.3263 15.6706C26.4907 16.7151 25.4617 17.5384 24.2169 18.1476L25.9751 21.7404C27.7384 20.8776 29.2373 19.6849 30.4497 18.1694L27.3263 15.6706ZM24.1663 21.7148C25.143 22.2276 25.8294 22.8871 26.2964 23.6877L29.7516 21.6723C28.8746 20.1689 27.609 19.0044 26.0257 18.1732L24.1663 21.7148ZM26.3307 23.7443C26.8079 24.5035 27.08 25.4357 27.08 26.616H31.08C31.08 24.7883 30.6481 23.0965 29.7173 21.6157L26.3307 23.7443ZM27.08 26.616C27.08 27.1985 27.0271 27.7386 26.9268 28.2398L30.8492 29.0242C31.0049 28.2454 31.08 27.4415 31.08 26.616H27.08ZM26.9198 28.2766C26.5633 30.2512 25.7819 31.8999 24.5917 33.2752L27.6163 35.8928C29.3061 33.9401 30.3807 31.6208 30.8562 28.9874L26.9198 28.2766ZM24.5772 33.2921C23.392 34.6928 21.8896 35.771 20.0284 36.521L21.5236 40.231C23.9504 39.253 26 37.8032 27.6308 35.8759L24.5772 33.2921ZM20.0187 36.5249C18.1626 37.2842 16.1496 37.672 13.96 37.672V41.672C16.6344 41.672 19.1654 41.1958 21.5333 40.2271L20.0187 36.5249ZM13.96 37.672C10.9818 37.672 8.75021 36.967 7.09993 35.723L4.69207 38.917C7.20179 40.809 10.3462 41.672 13.96 41.672V37.672ZM7.11182 35.732C5.60176 34.5758 4.824 33.0106 4.824 30.792H0.824C0.824 34.1414 2.09424 36.9282 4.68018 38.908L7.11182 35.732ZM4.824 30.792C4.824 30.1345 4.87883 29.5409 4.98068 29.0062L1.05132 28.2578C0.897172 29.0671 0.824 29.9135 0.824 30.792H4.824ZM4.98619 28.976C5.28501 27.2646 5.9238 25.8403 6.87843 24.6535L3.76157 22.1465C2.3482 23.9036 1.45099 25.9674 1.04581 28.288L4.98619 28.976ZM6.87843 24.6535C7.85514 23.4392 9.10379 22.4744 10.662 21.7636L9.00199 18.1244C6.91221 19.0776 5.15286 20.4168 3.76157 22.1465L6.87843 24.6535ZM19.288 7.528C17.6334 7.528 16.1227 8.04153 14.8505 9.08655L17.3895 12.1775C17.9093 11.7505 18.5106 11.528 19.288 11.528V7.528ZM14.8231 9.10951C13.5424 10.2005 12.8051 11.6771 12.5165 13.3674L16.4595 14.0406C16.6189 13.1069 16.9696 12.5355 17.4169 12.1545L14.8231 9.10951ZM12.5081 13.4212C12.4466 13.8516 12.392 14.2923 12.392 14.616H16.392C16.392 14.6429 16.391 14.6102 16.405 14.4774C16.4175 14.3585 16.4379 14.1968 16.4679 13.9868L12.5081 13.4212ZM12.392 14.616C12.392 16.0474 12.8486 17.3968 13.9285 18.4199L16.6795 15.5161C16.5434 15.3872 16.392 15.1686 16.392 14.616H12.392ZM14.0087 18.4919C15.0957 19.4159 16.4431 19.784 17.848 19.784V15.784C17.1409 15.784 16.7923 15.6081 16.5993 15.4441L14.0087 18.4919ZM17.848 19.784C19.7251 19.784 21.3966 19.1306 22.742 17.83L19.962 14.954C19.3874 15.5094 18.7229 15.784 17.848 15.784V19.784ZM22.742 17.83C24.1515 16.4675 24.792 14.6853 24.792 12.696H20.792C20.792 13.7787 20.4725 14.4605 19.962 14.954L22.742 17.83ZM24.792 12.696C24.792 11.2259 24.3114 9.82662 23.1273 8.82012L20.5367 11.8679C20.6326 11.9494 20.792 12.1181 20.792 12.696H24.792ZM23.1656 8.85352C22.0831 7.88501 20.7013 7.528 19.288 7.528V11.528C20.0507 11.528 20.3649 11.715 20.4984 11.8345L23.1656 8.85352ZM16.84 21.496C14.9425 21.496 13.2085 22.0301 11.7371 23.1553L14.1669 26.3327C14.8715 25.7939 15.7295 25.496 16.84 25.496V21.496ZM11.7143 23.173C10.2269 24.3449 9.34392 25.9579 9.01358 27.8573L12.9544 28.5427C13.1361 27.4981 13.5651 26.8071 14.1897 26.315L11.7143 23.173ZM9.0041 27.9172C8.93732 28.3846 8.888 28.836 8.888 29.208H12.888C12.888 29.132 12.9027 28.9114 12.9639 28.4828L9.0041 27.9172ZM8.888 29.208C8.888 30.8136 9.43761 32.2683 10.6096 33.3893L13.3744 30.4987C13.0744 30.2117 12.888 29.8424 12.888 29.208H8.888ZM10.6435 33.421C11.8683 34.5393 13.4762 34.952 15.16 34.952V30.952C14.0918 30.952 13.5877 30.6927 13.3405 30.467L10.6435 33.421ZM15.16 34.952C17.3676 34.952 19.3283 34.2521 20.8462 32.7342L18.0178 29.9058C17.3597 30.5639 16.4724 30.952 15.16 30.952V34.952ZM20.8666 32.7136C22.3349 31.202 23.064 29.3183 23.064 27.192H19.064C19.064 28.3297 18.7051 29.198 17.9974 29.9264L20.8666 32.7136ZM23.064 27.192C23.064 25.5475 22.4887 24.0478 21.1924 22.9676L18.6316 26.0404C18.8713 26.2402 19.064 26.5325 19.064 27.192H23.064ZM21.2605 23.027C20.0519 21.9235 18.4894 21.496 16.84 21.496V25.496C17.8146 25.496 18.3001 25.7405 18.5635 25.981L21.2605 23.027Z" fill="white" mask="url(#path-4-outside-1_848_154)"/>
</svg>
