<svg width="34" height="33" viewBox="0 0 34 33" fill="none" xmlns="http://www.w3.org/2000/svg">
<circle cx="26.502" cy="16.8947" r="3.08636" stroke="#EC2B60" stroke-width="0.877816"/>
<path d="M25.0552 23.7433L17.9538 16.6419L25.0552 9.54053C25.1233 9.47286 25.1773 9.39239 25.2142 9.30376C25.2511 9.21512 25.27 9.12007 25.27 9.02406C25.27 8.92806 25.2511 8.83301 25.2142 8.74437C25.1773 8.65574 25.1233 8.57527 25.0552 8.5076C23.4462 6.898 21.3961 5.80171 19.164 5.35738C16.9319 4.91305 14.6182 5.14064 12.5155 6.01137C10.4128 6.88209 8.61555 8.35684 7.35105 10.2491C6.08656 12.1413 5.41163 14.3661 5.41163 16.6419C5.41163 18.9178 6.08656 21.1425 7.35105 23.0348C8.61555 24.927 10.4128 26.4018 12.5155 27.2725C14.6182 28.1432 16.9319 28.3708 19.164 27.9265C21.3961 27.4822 23.4462 26.3859 25.0552 24.7763C25.191 24.6387 25.2672 24.4532 25.2672 24.2598C25.2672 24.0665 25.191 23.8809 25.0552 23.7433ZM9.81781 23.745C7.97272 21.9076 6.9134 19.4254 6.8633 16.822C6.8132 14.2185 7.77623 11.6974 9.54926 9.79039C11.3223 7.88338 13.7667 6.73956 16.3669 6.6002C18.967 6.46084 21.5197 7.33685 23.4864 9.04343L16.4044 16.1255C16.336 16.193 16.2817 16.2734 16.2447 16.3621C16.2076 16.4507 16.1885 16.5459 16.1885 16.6419C16.1885 16.738 16.2076 16.8332 16.2447 16.9218C16.2817 17.0105 16.336 17.0909 16.4044 17.1584L23.4864 24.2404C21.5669 25.8998 19.0904 26.7711 16.5547 26.6792C14.019 26.5873 11.6122 25.539 9.81781 23.745Z" fill="white"/>
</svg>
