<svg width="27" height="27" viewBox="0 0 27 27" fill="none" xmlns="http://www.w3.org/2000/svg">
<path d="M7.44509 26.041H2.19533C1.80587 26.0391 1.43297 25.8833 1.15802 25.6074C0.883074 25.3316 0.728409 24.9582 0.727783 24.5687L0.727783 11.4562C0.730902 11.0667 0.887022 10.694 1.16246 10.4186C1.4379 10.1432 1.81058 9.98704 2.2001 9.98392H7.44986C7.84015 9.98455 8.21428 10.1399 8.49025 10.4158C8.76623 10.6918 8.92155 11.0659 8.92218 11.4562V24.5806C8.91841 24.9697 8.76104 25.3415 8.48438 25.615C8.20771 25.8886 7.83415 26.0417 7.44509 26.041ZM2.19533 11.177C2.12107 11.1789 2.05055 11.2101 1.99915 11.2637C1.94775 11.3173 1.91963 11.3891 1.92091 11.4634V24.5687C1.92091 24.6428 1.95033 24.7138 2.00268 24.7661C2.05504 24.8185 2.12606 24.8479 2.2001 24.8479H7.44986C7.52391 24.8479 7.59492 24.8185 7.64728 24.7661C7.69964 24.7138 7.72906 24.6428 7.72906 24.5687V11.4562C7.72906 11.3822 7.69964 11.3112 7.64728 11.2588C7.59492 11.2065 7.52391 11.177 7.44986 11.177H2.19533Z" fill="white"/>
<path d="M16.1881 26.0414H10.9384C10.5481 26.0407 10.174 25.8854 9.89799 25.6094C9.62202 25.3335 9.4667 24.9593 9.46606 24.569V1.83758C9.46669 1.64423 9.50539 1.4529 9.57996 1.27451C9.65453 1.09612 9.76351 0.934163 9.90067 0.797889C10.0378 0.661614 10.2005 0.55369 10.3794 0.480279C10.5582 0.406867 10.7498 0.369406 10.9432 0.370033H16.1929C16.3866 0.36972 16.5784 0.407554 16.7574 0.481375C16.9365 0.555196 17.0992 0.663559 17.2364 0.800277C17.3736 0.936994 17.4824 1.09939 17.5568 1.27819C17.6312 1.45699 17.6697 1.64869 17.67 1.84235V24.569C17.6697 24.7631 17.6311 24.9552 17.5564 25.1343C17.4817 25.3134 17.3724 25.476 17.2347 25.6128C17.097 25.7496 16.9337 25.8579 16.7541 25.9314C16.5745 26.0049 16.3822 26.0423 16.1881 26.0414ZM10.9432 1.56316C10.8699 1.56315 10.7996 1.59191 10.7474 1.64324C10.6952 1.69457 10.6652 1.76436 10.664 1.83758V24.569C10.6646 24.6429 10.6942 24.7136 10.7464 24.7658C10.7987 24.818 10.8693 24.8476 10.9432 24.8482H16.1929C16.23 24.8489 16.2668 24.8421 16.3012 24.8284C16.3357 24.8146 16.367 24.7942 16.3934 24.7682C16.4199 24.7422 16.4409 24.7112 16.4552 24.677C16.4695 24.6428 16.4769 24.6061 16.4769 24.569V1.84235C16.4769 1.80487 16.4694 1.76777 16.4548 1.73326C16.4401 1.69875 16.4187 1.66754 16.3918 1.64148C16.3648 1.61543 16.3329 1.59507 16.2979 1.58161C16.2629 1.56815 16.2256 1.56188 16.1881 1.56316H10.9432Z" fill="#EC2B60"/>
<path d="M24.9316 26.0412H19.6818C19.2915 26.0405 18.9174 25.8852 18.6414 25.6092C18.3654 25.3333 18.2101 24.9592 18.2095 24.5689V8.83389C18.2101 8.4436 18.3654 8.06948 18.6414 7.7935C18.9174 7.51752 19.2915 7.3622 19.6818 7.36157H24.9316C25.3218 7.3622 25.696 7.51752 25.9719 7.7935C26.2479 8.06948 26.4032 8.4436 26.4039 8.83389V24.5689C26.4032 24.9592 26.2479 25.3333 25.9719 25.6092C25.696 25.8852 25.3218 26.0405 24.9316 26.0412ZM19.6818 8.5547C19.6449 8.55405 19.6084 8.56083 19.5742 8.57464C19.54 8.58844 19.509 8.60898 19.4829 8.63503C19.4569 8.66109 19.4363 8.69212 19.4225 8.72629C19.4087 8.76045 19.402 8.79705 19.4026 8.83389V24.5689C19.4032 24.6427 19.4328 24.7134 19.4851 24.7656C19.5373 24.8178 19.6079 24.8474 19.6818 24.8481H24.9316C25.0056 24.8481 25.0766 24.8186 25.129 24.7663C25.1813 24.7139 25.2107 24.6429 25.2107 24.5689V8.83389C25.2107 8.75985 25.1813 8.68883 25.129 8.63647C25.0766 8.58411 25.0056 8.5547 24.9316 8.5547H19.6818Z" fill="white"/>
</svg>
