<svg width="83" height="46" viewBox="0 0 83 46" fill="none" xmlns="http://www.w3.org/2000/svg">
<path d="M9.62935 11.6723L7.87573 13.4259L20.5043 26.0545L22.2579 24.3009L9.62935 11.6723Z" fill="#EC2B60"/>
<path d="M18.6416 22.4352L7.87878 33.2018L9.63271 34.9551L20.3956 24.1885L18.6416 22.4352Z" fill="#EC2B60"/>
<path d="M29.4034 11.6715L24.0007 17.0761L25.7547 18.8294L31.1574 13.4248L29.4034 11.6715Z" fill="#EC2B60"/>
<path d="M16.4897 11.6748L14.7361 13.4284L36.2605 34.9528L38.0141 33.1992L16.4897 11.6748Z" fill="white"/>
<path d="M36.2574 11.673L14.7367 33.2012L16.4906 34.9545L38.0113 13.4263L36.2574 11.673Z" fill="white"/>
<path d="M26.2345 27.8182L24.4808 29.5719L29.8619 34.953L31.6156 33.1994L26.2345 27.8182Z" fill="#EC2B60"/>
<path d="M70.5664 11.3427C68.266 11.3427 66.0172 12.0249 64.1045 13.3029C62.1918 14.5809 60.701 16.3975 59.8207 18.5228C58.9403 20.6481 58.71 22.9867 59.1588 25.2429C59.6076 27.4991 60.7153 29.5715 62.342 31.1982C63.9686 32.8248 66.0411 33.9325 68.2973 34.3813C70.5535 34.8301 72.8921 34.5998 75.0174 33.7195C77.1427 32.8391 78.9592 31.3484 80.2372 29.4356C81.5153 27.5229 82.1974 25.2742 82.1974 22.9738C82.1942 19.89 80.9677 16.9335 78.7872 14.753C76.6066 12.5724 73.6501 11.346 70.5664 11.3427ZM70.5664 33.0657C68.5696 33.0657 66.6177 32.4736 64.9576 31.3642C63.2974 30.2548 62.0035 28.678 61.2395 26.8332C60.4755 24.9884 60.2758 22.9585 60.6656 21.0001C61.0553 19.0418 62.0171 17.2431 63.4292 15.8314C64.8413 14.4197 66.6404 13.4585 68.5988 13.0693C70.5573 12.6801 72.5871 12.8805 74.4317 13.645C76.2762 14.4096 77.8527 15.7039 78.9615 17.3645C80.0704 19.025 80.662 20.977 80.6614 22.9738C80.6581 25.6498 79.5934 28.2153 77.7008 30.1073C75.8083 31.9993 73.2424 33.0632 70.5664 33.0657Z" fill="white"/>
<path d="M78.809 22.9675C78.8084 24.5976 78.3244 26.1909 77.4184 27.546C76.5123 28.901 75.2248 29.957 73.7186 30.5804C72.2124 31.2038 70.5553 31.3666 68.9566 31.0482C67.3579 30.7298 65.8895 29.9445 64.7371 28.7917C63.5846 27.6388 62.7999 26.1701 62.4821 24.5713C62.1643 22.9725 62.3277 21.3154 62.9517 19.8094C63.5756 18.3035 64.6321 17.0164 65.9875 16.1108C67.3429 15.2053 68.9364 14.7219 70.5665 14.7219C72.7521 14.7252 74.8472 15.595 76.3923 17.1408C77.9375 18.6865 78.8065 20.7819 78.809 22.9675Z" fill="#EC2B60"/>
</svg>
